<svg height="464pt" viewBox="-8 0 464 464" width="464pt" xmlns="http://www.w3.org/2000/svg"><path d="m32 64h304c17.671875 0 32 14.328125 32 32v336c0 17.671875-14.328125 32-32 32h-304zm0 0" fill="#8f583c"/><path d="m32 328h304c17.671875 0 32 14.328125 32 32v40c0 17.671875-14.328125 32-32 32h-304zm0 0" fill="#dedede"/><path d="m32 312h304c17.671875 0 32 14.328125 32 32v40c0 17.671875-14.328125 32-32 32h-304zm0 0" fill="#ccc"/><path d="m32 0h304c17.671875 0 32 14.328125 32 32v336c0 17.671875-14.328125 32-32 32h-304zm0 0" fill="#8f583c"/><path d="m280 72h-112c-4.417969 0-8 3.582031-8 8v84.457031c-4.839844-2.886719-10.363281-4.425781-16-4.457031-17.671875 0-32 14.328125-32 32s14.328125 32 32 32 32-14.328125 32-32v-72h80v-16h-80v-16h96v76.457031c-4.839844-2.886719-10.363281-4.425781-16-4.457031-17.671875 0-32 14.328125-32 32s14.328125 32 32 32 32-14.328125 32-32v-112c0-4.417969-3.582031-8-8-8zm-136 136c-8.835938 0-16-7.164062-16-16s7.164062-16 16-16 16 7.164062 16 16-7.164062 16-16 16zm112 0c-8.835938 0-16-7.164062-16-16s7.164062-16 16-16 16 7.164062 16 16-7.164062 16-16 16zm0 0" fill="#5c3724"/><path d="m8 24h48c4.417969 0 8 3.582031 8 8s-3.582031 8-8 8h-48c-4.417969 0-8-3.582031-8-8s3.582031-8 8-8zm0 0" fill="#d6d9db"/><path d="m8 72h48c4.417969 0 8 3.582031 8 8s-3.582031 8-8 8h-48c-4.417969 0-8-3.582031-8-8s3.582031-8 8-8zm0 0" fill="#d6d9db"/><path d="m8 120h48c4.417969 0 8 3.582031 8 8s-3.582031 8-8 8h-48c-4.417969 0-8-3.582031-8-8s3.582031-8 8-8zm0 0" fill="#d6d9db"/><path d="m8 168h48c4.417969 0 8 3.582031 8 8s-3.582031 8-8 8h-48c-4.417969 0-8-3.582031-8-8s3.582031-8 8-8zm0 0" fill="#d6d9db"/><path d="m8 216h48c4.417969 0 8 3.582031 8 8s-3.582031 8-8 8h-48c-4.417969 0-8-3.582031-8-8s3.582031-8 8-8zm0 0" fill="#d6d9db"/><path d="m8 264h48c4.417969 0 8 3.582031 8 8s-3.582031 8-8 8h-48c-4.417969 0-8-3.582031-8-8s3.582031-8 8-8zm0 0" fill="#d6d9db"/><path d="m8 312h48c4.417969 0 8 3.582031 8 8s-3.582031 8-8 8h-48c-4.417969 0-8-3.582031-8-8s3.582031-8 8-8zm0 0" fill="#d6d9db"/><path d="m8 360h48c4.417969 0 8 3.582031 8 8s-3.582031 8-8 8h-48c-4.417969 0-8-3.582031-8-8s3.582031-8 8-8zm0 0" fill="#d6d9db"/><g fill="#804e35"><path d="m32 40h32v16h-32zm0 0"/><path d="m32 88h32v16h-32zm0 0"/><path d="m32 136h32v16h-32zm0 0"/><path d="m32 184h32v16h-32zm0 0"/><path d="m32 232h32v16h-32zm0 0"/><path d="m32 280h32v16h-32zm0 0"/><path d="m32 328h32v16h-32zm0 0"/><path d="m32 376h32v16h-32zm0 0"/><path d="m296 256h72v16h-72zm0 0"/><path d="m368 296h-208l-21.335938 16h-26.664062v16h26.664062l21.335938 16h208zm0 0"/></g><path d="m160 280-21.335938 16h-26.664062v16h26.664062l21.335938 16h288v-48zm0 0" fill="#4398d1"/><path d="m296 280h16v48h-16zm0 0" fill="#2181c2"/><path d="m424 328h-16v-72h-112v-16h120c4.417969 0 8 3.582031 8 8zm0 0" fill="#dadddf"/></svg>